<svg width="64" height="64" viewBox="0 0 64 64" fill="none" xmlns="http://www.w3.org/2000/svg">
<circle cx="32" cy="32" r="31" stroke="#2E3B80" stroke-width="2"/>
<path fill-rule="evenodd" clip-rule="evenodd" d="M38.8004 24.0002C38.8004 27.7557 35.7559 30.8002 32.0004 30.8002C28.2449 30.8002 25.2004 27.7557 25.2004 24.0002C25.2004 20.2447 28.2449 17.2002 32.0004 17.2002C35.7559 17.2002 38.8004 20.2447 38.8004 24.0002ZM36.321 31.6683C38.9951 30.1583 40.8004 27.2901 40.8004 24.0002C40.8004 19.1401 36.8605 15.2002 32.0004 15.2002C27.1403 15.2002 23.2004 19.1401 23.2004 24.0002C23.2004 27.2902 25.0058 30.1585 27.68 31.6684C27.6407 31.6849 27.6015 31.7018 27.5625 31.7192L23.5323 33.5141C19.9247 35.1207 17.6006 38.6999 17.6006 42.6491V43.6002C17.6006 46.9139 20.2869 49.6002 23.6006 49.6002H40.4006C43.7143 49.6002 46.4006 46.9139 46.4006 43.6002V42.6491C46.4006 38.7 44.0764 35.1207 40.4689 33.5141L36.4386 31.7192C36.3996 31.7018 36.3604 31.6848 36.321 31.6683ZM44.4006 42.6491V43.6002C44.4006 45.8093 42.6097 47.6002 40.4006 47.6002H23.6006C21.3914 47.6002 19.6006 45.8093 19.6006 43.6002V42.6491C19.6006 39.4898 21.4599 36.6264 24.3459 35.3411L28.3762 33.5462C28.8884 33.3181 29.4428 33.2002 30.0035 33.2002H33.9977C34.5583 33.2002 35.1128 33.3181 35.625 33.5462L39.6552 35.3411C42.5413 36.6264 44.4006 39.4898 44.4006 42.6491Z" fill="#2E3B80"/>
</svg>
