<svg width="701" height="223" viewBox="0 0 701 223" fill="none" xmlns="http://www.w3.org/2000/svg">
<path d="M339.596 161.196V100.858L314.645 146.554H307.313L282.244 100.858V161.196H269V77.3611H283.19L310.979 128.607L338.768 77.3611H352.958V161.196H339.596Z" fill="white"/>
<path d="M386.096 162.377C383.1 162.377 380.302 161.904 377.7 160.96C375.177 159.936 372.97 158.559 371.078 156.827C369.265 155.095 367.806 153.049 366.703 150.687C365.678 148.326 365.166 145.767 365.166 143.012C365.166 140.099 365.796 137.462 367.058 135.101C368.319 132.739 370.093 130.693 372.379 128.961C374.744 127.229 377.503 125.891 380.656 124.946C383.889 124.002 387.436 123.529 391.299 123.529C394.216 123.529 397.093 123.805 399.931 124.356C402.769 124.828 405.331 125.497 407.618 126.363V122.112C407.618 117.547 406.317 114.004 403.715 111.485C401.114 108.888 397.369 107.589 392.481 107.589C389.17 107.589 385.899 108.219 382.667 109.478C379.513 110.659 376.242 112.391 372.852 114.673L368.831 106.408C376.794 101.055 385.071 98.3788 393.664 98.3788C402.178 98.3788 408.8 100.544 413.53 104.873C418.26 109.203 420.625 115.421 420.625 123.529V145.846C420.625 148.601 421.768 150.018 424.054 150.097V161.196C422.793 161.432 421.689 161.59 420.743 161.668C419.876 161.747 419.009 161.786 418.142 161.786C415.619 161.786 413.648 161.157 412.229 159.897C410.889 158.638 410.061 157.024 409.746 155.056L409.391 151.159C406.632 154.78 403.203 157.575 399.104 159.543C395.083 161.432 390.747 162.377 386.096 162.377ZM389.643 152.812C392.797 152.812 395.753 152.261 398.512 151.159C401.35 149.979 403.558 148.365 405.134 146.318C406.79 144.901 407.618 143.406 407.618 141.831V133.684C405.41 132.818 403.045 132.149 400.523 131.677C398.079 131.204 395.674 130.968 393.309 130.968C388.658 130.968 384.835 131.991 381.839 134.038C378.922 136.006 377.464 138.643 377.464 141.949C377.464 145.019 378.607 147.617 380.893 149.742C383.179 151.789 386.096 152.812 389.643 152.812Z" fill="white"/>
<path d="M471.172 110.659C466.126 110.816 461.633 111.997 457.691 114.201C453.828 116.327 451.069 119.397 449.414 123.411V161.196H436.406V99.4415H448.468V113.257C450.596 109.006 453.355 105.621 456.745 103.102C460.214 100.504 463.919 99.0873 467.861 98.8511C468.649 98.8511 469.28 98.8511 469.753 98.8511C470.305 98.8511 470.778 98.8905 471.172 98.9692V110.659Z" fill="white"/>
<path d="M523.678 161.196L503.93 132.739L493.642 142.422V161.196H480.635V74.9995H493.642V129.669L522.022 99.5596H536.212L512.208 125.419L537.513 161.196H523.678Z" fill="white"/>
<path d="M570.21 162.377C565.402 162.377 561.026 161.55 557.085 159.897C553.143 158.165 549.753 155.843 546.915 152.931C544.156 150.018 541.988 146.633 540.411 142.776C538.913 138.919 538.164 134.825 538.164 130.496C538.164 126.166 538.913 122.073 540.411 118.216C541.988 114.28 544.156 110.856 546.915 107.943C549.753 104.952 553.143 102.63 557.085 100.977C561.026 99.2447 565.441 98.3788 570.329 98.3788C575.138 98.3788 579.473 99.2447 583.336 100.977C587.278 102.708 590.628 105.031 593.388 107.943C596.147 110.777 598.236 114.122 599.655 117.98C601.153 121.758 601.902 125.733 601.902 129.905C601.902 130.85 601.862 131.755 601.783 132.621C601.705 133.408 601.626 134.078 601.547 134.629H552C552.236 137.384 552.867 139.863 553.892 142.067C554.996 144.272 556.375 146.2 558.031 147.853C559.765 149.428 561.696 150.648 563.825 151.514C566.032 152.38 568.318 152.812 570.683 152.812C572.418 152.812 574.113 152.616 575.768 152.222C577.503 151.75 579.079 151.12 580.498 150.333C581.917 149.467 583.179 148.444 584.282 147.263C585.386 146.082 586.253 144.783 586.884 143.366L597.999 146.554C595.871 151.199 592.323 155.017 587.357 158.008C582.469 160.92 576.754 162.377 570.21 162.377ZM589.012 125.655C588.776 123.057 588.106 120.656 587.002 118.452C585.977 116.248 584.637 114.398 582.982 112.902C581.326 111.328 579.395 110.108 577.187 109.242C574.98 108.376 572.654 107.943 570.21 107.943C567.767 107.943 565.441 108.376 563.234 109.242C561.105 110.108 559.213 111.328 557.558 112.902C555.902 114.398 554.562 116.248 553.537 118.452C552.512 120.656 551.882 123.057 551.645 125.655H589.012Z" fill="white"/>
<path d="M613.024 175.719C614.206 175.956 615.349 176.152 616.453 176.31C617.635 176.467 618.581 176.546 619.291 176.546C620.316 176.546 621.183 176.31 621.892 175.838C622.681 175.444 623.469 174.696 624.258 173.594C625.046 172.492 625.834 170.918 626.623 168.871C627.49 166.903 628.475 164.345 629.579 161.196L604.155 99.4415H617.517L636.674 149.742L653.702 99.4415H666L637.975 175.483C636.713 179.026 634.506 181.978 631.353 184.339C628.278 186.779 624.297 188 619.409 188C618.463 188 617.478 187.921 616.453 187.763C615.428 187.685 614.285 187.448 613.024 187.055V175.719Z" fill="white"/>
<path d="M86.1464 35.0088C98.1507 34.9999 115.091 39.0432 129.181 48.802C143.504 58.7227 155 74.6866 155 98.0019C155 121.317 143.504 137.281 129.181 147.202C115.091 156.961 98.1507 161.004 86.1465 160.995C75.8144 160.987 51.6899 160.995 39.799 160.999L39.005 160.999C36.7967 160.999 35.0094 159.213 35.0083 157.005C34.9973 134.471 34.9985 61.5073 35.0044 39.0008C35.005 36.7908 36.7979 35.0017 39.0078 35.0036C54.7207 35.0171 70.4336 35.0206 86.1464 35.0088Z" fill="white"/>
<path d="M74.7442 126.506C70.9081 107.137 70.8149 100.205 65.0063 97.8013C64.6506 97.6541 64.5486 97.1823 64.855 96.9493C66.7156 95.5348 68.4983 95.3081 69.5481 95.596C74.3004 96.8991 76.4692 98.7234 78.49 107.346C91.918 77.0322 115.884 69.2514 123.671 67.4789C124.207 67.3568 124.452 68.0521 123.991 68.3517C116.51 73.2108 92.0342 91.4255 83.4076 126.506C82.9033 128.557 75.1288 128.448 74.7442 126.506Z" fill="#FD7700"/>
<path d="M206.19 110.746C201.111 110.903 196.587 112.077 192.619 114.269C188.73 116.383 185.952 119.436 184.285 123.428V161.004H171.19V99.591H183.333V113.33C185.476 109.102 188.253 105.736 191.666 103.231C195.158 100.648 198.888 99.2388 202.857 99.0039C203.65 99.0039 204.285 99.0039 204.761 99.0039C205.317 99.0039 205.793 99.043 206.19 99.1213V110.746Z" fill="white"/>
<rect x="215" y="147" width="14" height="14" fill="white"/>
</svg>
