<svg width="467" height="335" viewBox="0 0 467 335" fill="none" xmlns="http://www.w3.org/2000/svg">
<path d="M105.596 273.201V212.863L80.6448 258.559H73.3132L48.2441 212.863V273.201H35V189.366H49.1901L76.979 240.611L104.768 189.366H118.958V273.201H105.596Z" fill="white"/>
<path d="M152.096 274.382C149.1 274.382 146.302 273.909 143.7 272.965C141.177 271.941 138.97 270.564 137.078 268.832C135.265 267.1 133.806 265.053 132.703 262.692C131.678 260.33 131.166 257.772 131.166 255.017C131.166 252.104 131.796 249.467 133.058 247.106C134.319 244.744 136.093 242.698 138.379 240.966C140.744 239.234 143.503 237.896 146.656 236.951C149.889 236.006 153.436 235.534 157.299 235.534C160.216 235.534 163.093 235.81 165.931 236.361C168.769 236.833 171.331 237.502 173.618 238.368V234.117C173.618 229.552 172.317 226.009 169.715 223.49C167.114 220.893 163.369 219.594 158.481 219.594C155.17 219.594 151.899 220.223 148.667 221.483C145.513 222.664 142.242 224.396 138.852 226.678L134.831 218.413C142.794 213.06 151.071 210.384 159.664 210.384C168.178 210.384 174.8 212.548 179.53 216.878C184.26 221.207 186.625 227.426 186.625 235.534V257.851C186.625 260.606 187.768 262.023 190.054 262.102V273.201C188.793 273.437 187.689 273.594 186.743 273.673C185.876 273.752 185.009 273.791 184.142 273.791C181.619 273.791 179.648 273.161 178.229 271.902C176.889 270.642 176.061 269.029 175.746 267.061L175.391 263.164C172.632 266.785 169.203 269.58 165.104 271.548C161.083 273.437 156.747 274.382 152.096 274.382ZM155.643 264.817C158.797 264.817 161.753 264.266 164.512 263.164C167.35 261.983 169.558 260.37 171.134 258.323C172.79 256.906 173.618 255.411 173.618 253.836V245.689C171.41 244.823 169.045 244.154 166.523 243.682C164.079 243.209 161.674 242.973 159.309 242.973C154.658 242.973 150.835 243.996 147.839 246.043C144.922 248.011 143.464 250.648 143.464 253.954C143.464 257.024 144.607 259.622 146.893 261.747C149.179 263.794 152.096 264.817 155.643 264.817Z" fill="white"/>
<path d="M237.172 222.664C232.126 222.821 227.633 224.002 223.691 226.206C219.828 228.331 217.069 231.401 215.414 235.416V273.201H202.406V211.446H214.468V225.261C216.596 221.011 219.355 217.626 222.745 215.107C226.214 212.509 229.919 211.092 233.861 210.856C234.649 210.856 235.28 210.856 235.753 210.856C236.305 210.856 236.778 210.895 237.172 210.974V222.664Z" fill="white"/>
<path d="M289.678 273.201L269.93 244.744L259.642 254.427V273.201H246.635V187.004H259.642V241.674L288.022 211.564H302.212L278.208 237.423L303.513 273.201H289.678Z" fill="white"/>
<path d="M336.21 274.382C331.402 274.382 327.026 273.555 323.085 271.902C319.143 270.17 315.753 267.848 312.915 264.935C310.156 262.023 307.988 258.638 306.411 254.781C304.913 250.924 304.165 246.83 304.165 242.501C304.165 238.171 304.913 234.078 306.411 230.221C307.988 226.285 310.156 222.861 312.915 219.948C315.753 216.957 319.143 214.634 323.085 212.981C327.026 211.25 331.441 210.384 336.329 210.384C341.138 210.384 345.473 211.25 349.336 212.981C353.278 214.713 356.628 217.035 359.388 219.948C362.147 222.782 364.236 226.127 365.655 229.985C367.153 233.763 367.902 237.738 367.902 241.91C367.902 242.855 367.862 243.76 367.783 244.626C367.705 245.413 367.626 246.082 367.547 246.633H318C318.236 249.389 318.867 251.868 319.892 254.072C320.996 256.276 322.375 258.205 324.031 259.858C325.765 261.432 327.696 262.653 329.825 263.518C332.032 264.384 334.318 264.817 336.683 264.817C338.418 264.817 340.113 264.621 341.768 264.227C343.503 263.755 345.079 263.125 346.498 262.338C347.917 261.472 349.179 260.448 350.282 259.268C351.386 258.087 352.253 256.788 352.884 255.371L363.999 258.559C361.871 263.204 358.323 267.021 353.357 270.013C348.469 272.925 342.754 274.382 336.21 274.382ZM355.012 237.66C354.776 235.062 354.106 232.661 353.002 230.457C351.977 228.253 350.637 226.403 348.982 224.907C347.326 223.333 345.395 222.113 343.187 221.247C340.98 220.381 338.654 219.948 336.21 219.948C333.767 219.948 331.441 220.381 329.234 221.247C327.105 222.113 325.213 223.333 323.558 224.907C321.902 226.403 320.562 228.253 319.537 230.457C318.512 232.661 317.882 235.062 317.645 237.66H355.012Z" fill="white"/>
<path d="M379.024 287.724C380.206 287.96 381.349 288.157 382.453 288.315C383.635 288.472 384.581 288.551 385.291 288.551C386.316 288.551 387.183 288.315 387.892 287.842C388.681 287.449 389.469 286.701 390.258 285.599C391.046 284.497 391.834 282.923 392.623 280.876C393.49 278.908 394.475 276.35 395.579 273.201L370.155 211.446H383.517L402.674 261.747L419.702 211.446H432L403.975 287.488C402.713 291.031 400.506 293.982 397.353 296.344C394.278 298.784 390.297 300.004 385.409 300.004C384.463 300.004 383.478 299.926 382.453 299.768C381.428 299.69 380.285 299.453 379.024 299.06V287.724Z" fill="white"/>
<path d="M199.146 35.0093C211.151 35.0004 228.091 39.0437 242.181 48.8024C256.504 58.7232 268 74.6871 268 98.0024C268 121.318 256.504 137.282 242.181 147.202C228.091 156.961 211.151 161.004 199.146 160.995C188.814 160.988 164.69 160.995 152.799 160.999L152.005 160.999C149.797 161 148.009 159.214 148.008 157.006C147.997 134.472 147.999 61.5078 148.004 39.0013C148.005 36.7913 149.798 35.0022 152.008 35.0041C167.721 35.0175 183.434 35.0211 199.146 35.0093Z" fill="white"/>
<path d="M187.744 126.507C183.908 107.138 183.815 100.205 178.006 97.8018C177.651 97.6546 177.549 97.1828 177.855 96.9498C179.716 95.5353 181.498 95.3086 182.548 95.5965C187.3 96.8996 189.469 98.7239 191.49 107.347C204.918 77.0327 228.884 69.2519 236.671 67.4794C237.207 67.3573 237.452 68.0526 236.991 68.3522C229.51 73.2112 205.034 91.426 196.408 126.507C195.903 128.558 188.129 128.449 187.744 126.507Z" fill="#FD7700"/>
<path d="M319.19 110.747C314.111 110.903 309.587 112.078 305.619 114.27C301.73 116.383 298.952 119.436 297.285 123.429V161.004H284.19V99.5915H296.333V113.33C298.476 109.103 301.253 105.737 304.666 103.232C308.158 100.648 311.888 99.2392 315.857 99.0044C316.65 99.0044 317.285 99.0044 317.761 99.0044C318.317 99.0044 318.793 99.0435 319.19 99.1218V110.747Z" fill="white"/>
<rect x="328" y="147" width="14" height="14" fill="white"/>
</svg>
